<svg width="709" height="160" viewBox="0 0 709 160" fill="none" xmlns="http://www.w3.org/2000/svg">
<path d="M707.5 80C707.5 85.0027 705.086 90.0393 700.166 95.0745C695.241 100.115 687.9 105.049 678.315 109.795C659.15 119.285 631.32 127.873 596.807 135.1C527.807 149.551 432.415 158.5 327 158.5C221.585 158.5 126.193 149.551 57.1927 135.1C22.6803 127.873 -5.14958 119.285 -24.315 109.795C-33.9005 105.049 -41.2412 100.115 -46.1662 95.0745C-51.0862 90.0393 -53.5 85.0027 -53.5 80C-53.5 74.9973 -51.0862 69.9607 -46.1662 64.9255C-41.2412 59.885 -33.9005 54.9507 -24.315 50.2046C-5.14958 40.7152 22.6803 32.1273 57.1927 24.8996C126.193 10.4493 221.585 1.5 327 1.5C432.415 1.5 527.807 10.4493 596.807 24.8996C631.32 32.1273 659.15 40.7152 678.315 50.2046C687.9 54.9507 695.241 59.885 700.166 64.9255C705.086 69.9607 707.5 74.9973 707.5 80Z" fill="white" stroke="#00FF00" stroke-width="3"/>
</svg>
